<?xml version="1.0" encoding="utf-8"?>
<!-- Generator: Adobe Illustrator 25.4.0, SVG Export Plug-In . SVG Version: 6.00 Build 0)  -->
<svg version="1.1" id="Layer_1" xmlns="http://www.w3.org/2000/svg" xmlns:xlink="http://www.w3.org/1999/xlink" x="0px" y="0px"
	 viewBox="0 0 1083 223.3" style="enable-background:new 0 0 1083 223.3;" xml:space="preserve">
<style type="text/css">
	.st0{fill:#7C7C7C;}
	.st1{fill:#E20613;}
	.st2{fill:#FFFFFF;}
</style>
<rect x="590.7" y="72.3" class="st0" width="5.1" height="78.7"/>
<g>
	<g>
		<g>
			<g>
				<path class="st1" d="M501.4,65c-15,0-28.2,7.1-36.8,18.1c-8.5-11-21.8-18.1-36.8-18.1c-15,0-28.3,7.1-36.8,18.1
					c-8.5-11-21.8-18.1-36.8-18.1c-15,0-28.3,7.1-36.8,18.1C309,72.1,295.7,65,280.8,65c-15,0-28.3,7.1-36.8,18.1
					c-8.5-11-21.8-18.1-36.8-18.1c-15,0-28.3,7.1-36.8,18.1c-8.5-11-21.8-18.1-36.8-18.1c-15,0-28.3,7.1-36.8,18.1
					C88.3,72.1,75,65,60,65c-25.7,0-46.6,20.8-46.6,46.6c0,25.7,20.8,46.6,46.6,46.6c15,0,28.3-7.1,36.8-18.1
					c8.5,11,21.8,18.1,36.8,18.1c15,0,28.2-7.1,36.8-18.1c8.5,11,21.8,18.1,36.8,18.1c15,0,28.2-7.1,36.8-18.1
					c8.5,11,21.8,18.1,36.8,18.1c15,0,28.2-7.1,36.8-18.1c8.5,11,21.8,18.1,36.8,18.1s28.3-7.1,36.8-18.1
					c8.5,11,21.8,18.1,36.8,18.1c15,0,28.3-7.1,36.8-18.1c8.5,11,21.8,18.1,36.8,18.1c25.7,0,46.6-20.9,46.6-46.6
					C548,85.9,527.2,65,501.4,65"/>
				<path class="st2" d="M427.9,135.9c-13.4,0-24.2-10.9-24.2-24.3c0-13.4,10.9-24.3,24.2-24.3s24.2,10.9,24.2,24.3
					S441.2,135.9,427.9,135.9 M427.9,98c-7.5,0-13.7,6.1-13.7,13.6c0,7.5,6.1,13.7,13.7,13.7c7.5,0,13.6-6.1,13.6-13.7
					C441.5,104.1,435.4,98,427.9,98"/>
				<path class="st2" d="M501.4,135.9c-13.4,0-24.3-10.9-24.3-24.3c0-13.4,10.9-24.3,24.3-24.3c13.4,0,24.3,10.9,24.3,24.3
					S514.8,135.9,501.4,135.9 M501.4,98c-7.5,0-13.6,6.1-13.6,13.6c0,7.5,6.1,13.7,13.6,13.7s13.6-6.1,13.6-13.7
					C515.1,104.1,509,98,501.4,98"/>
				<path class="st2" d="M133.6,135.9c-13.4,0-24.3-10.9-24.3-24.3c0-13.4,10.9-24.3,24.3-24.3c13.4,0,24.2,10.9,24.2,24.3
					S147,135.9,133.6,135.9 M133.6,98c-7.5,0-13.6,6.1-13.6,13.6c0,7.5,6.1,13.7,13.6,13.7s13.6-6.1,13.6-13.7
					C147.3,104.1,141.2,98,133.6,98"/>
				<path class="st2" d="M60.1,135.9c-13.4,0-24.3-10.9-24.3-24.3c0-13.4,10.9-24.3,24.3-24.3c13.4,0,24.2,10.9,24.2,24.3
					S73.4,135.9,60.1,135.9 M60.1,98c-7.5,0-13.6,6.1-13.6,13.6c0,7.5,6.1,13.7,13.6,13.7c7.5,0,13.6-6.1,13.6-13.7
					C73.7,104.1,67.6,98,60.1,98"/>
				<path class="st2" d="M281.2,135.8c-0.8,0-1.5,0-2.2-0.1l-0.6,0l-0.8-0.1c-12.3-1.4-21.5-11.7-21.5-24.1
					c0-13.4,10.9-24.2,24.3-24.2s24.2,10.9,24.2,24.2c0,1.6-0.1,3-0.5,4.6l-36.6,0l0.7,1.8c2,3.7,5.4,6.2,9.5,7
					c1.2,0.2,2.4,0.3,3.6,0.3h0.6c3.5-0.1,6.9-1.3,9.2-3.4l0.3-0.3l9.9,5.3l-0.4,0.5c-4.4,5.3-10.8,8.2-18.8,8.4
					C281.8,135.8,281.5,135.8,281.2,135.8 M280.4,97.9c-5.6,0-10.5,3.3-12.6,8.5l-0.1,0.2l25.4,0l0-0.2
					C291,101.3,286,97.9,280.4,97.9"/>
				<path class="st2" d="M184.7,134.6l0-23l0-1.3c0.7-12.8,11.4-22.9,24.2-22.9c9.2,0,17.5,5.1,21.7,13.4l-9.4,5
					c-2.3-4.7-7.1-7.8-12.3-7.8c-7.5,0-13.6,6.1-13.6,13.6l0,23L184.7,134.6L184.7,134.6z"/>
				<path class="st2" d="M368,67.1l0,24.5l-1-0.6c-3.8-2.4-8.2-3.6-12.6-3.6c-13.4,0-24.2,10.9-24.2,24.2
					c0,13.4,10.9,24.3,24.2,24.3s24.2-10.9,24.2-24.3l0-39.7C375.3,69.9,371.8,68.3,368,67.1 M354.3,125.3
					c-7.5,0-13.6-6.1-13.6-13.7S346.8,98,354.3,98c7.5,0,13.7,6.1,13.7,13.6C368,119.2,361.9,125.3,354.3,125.3"/>
			</g>
		</g>
	</g>
	<g>
		<path d="M1040.5,83.8c0,6.2-5,11.3-11.3,11.3c-6.2,0-11.3-5.1-11.3-11.3c0-6.2,5-11.3,11.3-11.3
			C1035.5,72.5,1040.5,77.6,1040.5,83.8"/>
		<path d="M758.2,118.8c0-2.5-0.6-4.7-1.9-6.5c-1.3-1.8-2.9-3.4-5-4.7c-2.1-1.3-4.4-2.5-7.1-3.5c-2.7-1-5.4-2-8.2-3.1
			c-3.4-1.1-7.5-2.7-12.3-4.6c-4.8-2-8.8-4.6-12-8c-3.2-3.4-5.2-7.5-6-12.3c-0.5-4.2,0.1-8.2,1.8-12c1.7-3.8,4.1-7.2,7.3-10.1
			c3.2-2.9,6.9-5.2,11.2-6.9c4.3-1.7,8.8-2.5,13.6-2.5c6,0,11,1.1,15.2,3.3c4.2,2.2,7.6,4.8,10.2,7.9c2.7,3.1,4.6,6.3,5.9,9.7
			c1.3,3.4,1.9,6.3,2,8.6H756c-0.9-4.2-2.7-7.5-5.3-9.8c-2.6-2.3-6.3-3.6-11.1-3.8c-2.8-0.1-5.3,0.3-7.6,1c-2.2,0.8-4.1,1.9-5.6,3.2
			c-1.5,1.4-2.5,2.9-3.2,4.6c-0.6,1.7-0.7,3.5-0.3,5.3c0.3,1.4,1,2.6,2.1,3.6c1.1,1,2.5,2,4.2,2.8c1.7,0.8,3.6,1.6,5.7,2.4
			c2.1,0.7,4.3,1.5,6.7,2.2c3.9,1.3,7.9,2.7,11.8,4.3c4,1.5,7.5,3.5,10.7,6c3.2,2.4,5.8,5.5,7.8,9.1c2,3.6,3,8.2,3,13.7
			c0,4.8-1,9-2.9,12.7c-1.9,3.7-4.5,6.9-7.8,9.4c-3.3,2.5-7,4.5-11.3,5.8c-4.3,1.4-8.7,2-13.2,2c-4.7,0-9.2-0.8-13.7-2.5
			c-4.4-1.7-8.4-4.2-11.8-7.4c-3.5-3.3-6.2-7.2-8.3-11.9c-2.1-4.7-3-10-2.8-16.1H720c0,2.9,0.4,5.7,1.3,8.3c0.9,2.7,2.2,5,3.9,6.9
			c1.7,2,3.7,3.5,6.2,4.7c2.4,1.2,5.2,1.7,8.3,1.7c5.6,0,10.1-1.2,13.5-3.6C756.5,126.7,758.2,123.3,758.2,118.8"/>
		<polygon points="779.6,92 779.6,75.7 786.1,75.7 786.1,50.7 802.3,50.7 802.3,75.7 818.7,75.7 818.7,92 802.3,92 802.3,145.8 
			786.1,145.8 786.1,92 		"/>
		<path d="M826.7,110.6c0-5.3,1-10.3,3-14.9c2-4.6,4.7-8.6,8.2-12.1c3.5-3.4,7.5-6.1,12.1-8.1c4.6-2,9.6-3,14.9-3
			c5.3,0,10.3,1,14.9,3c4.6,2,8.6,4.7,12.1,8.1c3.4,3.4,6.1,7.4,8.1,12.1c2,4.6,3,9.6,3,14.9v35.2h-16.3v-3.9
			c-6.4,4.6-13.7,6.9-21.9,6.9c-5.8,0-11-1-15.8-2.9c-4.7-2-8.7-4.7-12.1-8.1c-3.3-3.5-5.9-7.5-7.7-12.1
			C827.6,120.9,826.7,116,826.7,110.6 M843,110.6c0,3,0.6,5.8,1.8,8.5c1.2,2.7,2.7,5,4.7,6.9c2,2,4.3,3.5,7,4.7
			c2.7,1.2,5.5,1.8,8.5,1.8s5.8-0.5,8.5-1.6c2.7-1.1,5-2.6,7-4.6c2-2,3.6-4.3,4.7-6.9c1.1-2.7,1.7-5.6,1.7-8.8c0-3-0.6-5.8-1.8-8.5
			c-1.2-2.7-2.7-5-4.7-6.9c-2-2-4.3-3.5-7-4.7c-2.7-1.2-5.5-1.7-8.5-1.7s-5.8,0.6-8.5,1.7c-2.7,1.2-5,2.7-7,4.7
			c-2,2-3.5,4.3-4.7,6.9C843.6,104.8,843,107.6,843,110.6"/>
		<path d="M913.3,75.7h16.3v7c3.4-2.3,7.2-4.1,11.5-5.4c4.3-1.3,9-1.9,14.2-1.9v16.3c-3.6,0-6.9,0.6-9.9,1.8
			c-3.1,1.2-5.8,2.8-8.1,4.8c-2.3,2-4.2,4.3-5.5,7c-1.4,2.7-2,5.5-2,8.5v32.1h-16.3V75.7z"/>
		<polygon points="962.5,92 962.5,75.7 968.9,75.7 968.9,50.7 985.2,50.7 985.2,75.7 1001.6,75.7 1001.6,92 985.2,92 985.2,145.8 
			968.9,145.8 968.9,92 		"/>
		<path class="st1" d="M659.4,128.5V92H653V75.7h6.4V50.7h16.3v25.1h16.4V92h-16.4v30c0,0-0.6,7.7,7.6,7.7l0.1,16.2H673
			C673,145.9,659.4,145.9,659.4,128.5"/>
		<path d="M711.6,173.7c-6,0-9-3.1-9-9.1v-1.2l0.3-0.3h2.1l0.3,0.3v1.2c0,4.3,2,6.4,6.1,6.4h8.8c1.9,0,2.7-0.6,2.7-3.8v-3.7l0.3-0.3
			h2.1l0.3,0.3v4.6c0,4.7-2.6,5.6-4.7,5.6H711.6z M715.1,163.7l-0.3-0.3v-2.6l0.3-0.3h2.1l0.3,0.3v2.6l-0.3,0.3H715.1z M711.1,163.7
			l-0.3-0.3v-2.6l0.3-0.3h2.1l0.3,0.3v2.6l-0.3,0.3H711.1z"/>
		<path d="M728.3,178.3v-2l0.3-0.3c2.7,0,3.9-1.5,3.9-4.8v-7.8l0.3-0.3h2.1l0.3,0.3v7.4c0,5.2-2,7.6-6.6,7.8L728.3,178.3z"/>
		<path d="M743.3,173.7c-1.2,0-2.2-0.4-3-1.2c-0.9-0.9-1.4-2.2-1.4-3.9v-11l0.3-0.3h2.2l0.3,0.3v9.7c0,1.3,0.2,2.3,0.6,2.8
			c0.3,0.4,0.8,0.7,1.5,0.8c0.2,0,0.5,0,1.9,0l0.3,0.3v2.1l-0.3,0.3H743.3z"/>
		<path d="M745.1,173.7l-0.3-0.3v-2.1l0.3-0.3h1.9c1.2,0,1.9-0.4,2.3-1.1c0.3-0.5,0.4-1.5,0.4-2.8v-3.7l0.3-0.3h2.1l0.3,0.3v4.6
			c0,1.1-0.1,2.1-0.4,2.9h178.6l0.3,0.3v2.1l-0.3,0.3H745.1z M750,161.6l-0.3-0.3v-2.6l0.3-0.3h2.1l0.3,0.3v2.6l-0.3,0.3H750z
			 M746.1,161.6l-0.3-0.3v-2.6l0.3-0.3h2.2l0.3,0.3v2.6l-0.3,0.3H746.1z"/>
		<path d="M754.9,173.7l-0.3-0.3v-2.1l0.3-0.3h177.9c1.8,0,2.7-1.2,2.9-3.6l0-3.9l0.3-0.3h2.1l0.3,0.3v4.6c0,1.1-0.1,2.1-0.4,2.9
			h3.6c1.6,0,2.3-0.6,2.3-3.8v-3.7l0.3-0.3h2.1l0.3,0.3v4.6c0,1.2-0.1,2.1-0.4,2.9h3.2c1.9,0,2.7-0.6,2.7-3.8v-3.7l0.3-0.3h2.2
			l0.3,0.3v4.6c0,3.7-1.6,5.6-4.8,5.6H754.9z"/>
		<path class="st1" d="M973.1,173.7c-5.3,0-8-3.1-8-9.1v-1.2l0.3-0.3h1.9l0.3,0.3v1.2c0,4.3,1.8,6.4,5.4,6.4h7.7
			c1.6,0,2.3-0.6,2.3-3.8v-3.7l0.3-0.3h1.9l0.3,0.3v4.6c0,4.7-2.3,5.6-4.2,5.6H973.1z M976.2,163.7l-0.3-0.3v-2.6l0.3-0.3h1.9
			l0.3,0.3v2.6l-0.3,0.3H976.2z M972.7,163.7l-0.3-0.3v-2.6l0.3-0.3h1.9l0.3,0.3v2.6l-0.3,0.3H972.7z"/>
	</g>
</g>
</svg>
