<?xml version="1.0" encoding="utf-8"?>
<!-- Generator: Adobe Illustrator 25.4.0, SVG Export Plug-In . SVG Version: 6.00 Build 0)  -->
<svg version="1.1" id="Layer_1" xmlns="http://www.w3.org/2000/svg" xmlns:xlink="http://www.w3.org/1999/xlink" x="0px" y="0px"
	 viewBox="0 0 173.83 60" style="enable-background:new 0 0 173.83 60;" xml:space="preserve">
<style type="text/css">
	.st0{fill:#ED1C24;}
</style>
<g>
	<path class="st0" d="M172.48,17.74c0,2.74-2.22,4.96-4.96,4.96s-4.96-2.22-4.96-4.96s2.22-4.96,4.96-4.96
		C170.26,12.78,172.48,15,172.48,17.74"/>
	<path d="M48.17,33.15c0-1.11-0.28-2.06-0.83-2.86c-0.56-0.8-1.29-1.49-2.19-2.06c-0.91-0.57-1.94-1.09-3.12-1.54
		c-1.17-0.45-2.38-0.9-3.61-1.35c-1.48-0.49-3.28-1.17-5.4-2.03c-2.12-0.86-3.88-2.03-5.28-3.51s-2.28-3.28-2.65-5.42
		c-0.21-1.85,0.06-3.61,0.8-5.3c0.74-1.68,1.81-3.16,3.21-4.44c1.4-1.27,3.04-2.28,4.94-3.02c1.89-0.74,3.89-1.11,5.98-1.11
		c2.63,0,4.86,0.48,6.7,1.45c1.83,0.97,3.33,2.13,4.5,3.49s2.04,2.79,2.59,4.29c0.56,1.5,0.85,2.77,0.9,3.79h-7.53
		c-0.41-1.85-1.18-3.29-2.31-4.32s-2.77-1.58-4.9-1.67C38.73,7.49,37.62,7.65,36.64,8c-0.99,0.35-1.81,0.82-2.47,1.42
		s-1.12,1.28-1.39,2.04s-0.32,1.53-0.15,2.31c0.12,0.62,0.43,1.15,0.93,1.6c0.49,0.45,1.11,0.86,1.85,1.23
		c0.74,0.37,1.57,0.72,2.5,1.05s1.9,0.66,2.93,0.99c1.73,0.58,3.46,1.2,5.21,1.88c1.75,0.68,3.32,1.55,4.72,2.62
		c1.4,1.07,2.54,2.41,3.43,4.01c0.88,1.6,1.33,3.62,1.33,6.05c0,2.1-0.42,3.97-1.26,5.61c-0.84,1.65-1.98,3.03-3.42,4.13
		c-1.44,1.11-3.1,1.97-4.97,2.56c-1.87,0.6-3.82,0.89-5.83,0.89c-2.06,0-4.06-0.37-6.01-1.12s-3.69-1.84-5.21-3.27
		c-1.52-1.43-2.74-3.18-3.64-5.24s-1.32-4.42-1.23-7.1h7.4c0,1.28,0.19,2.5,0.59,3.67c0.39,1.17,0.96,2.19,1.7,3.05
		c0.74,0.86,1.64,1.56,2.71,2.07s2.28,0.77,3.64,0.77c2.47,0,4.45-0.52,5.95-1.57C47.42,36.63,48.17,35.12,48.17,33.15"/>
	<polygon points="57.61,21.35 57.61,14.2 60.45,14.2 60.45,3.15 67.61,3.15 67.61,14.2 74.83,14.2 74.83,21.35 67.61,21.35 
		67.61,45.05 60.45,45.05 60.45,21.35 	"/>
	<path d="M78.34,29.56c0-2.35,0.44-4.54,1.33-6.57c0.88-2.04,2.09-3.8,3.61-5.31c1.52-1.5,3.3-2.69,5.34-3.58
		c2.04-0.88,4.23-1.33,6.57-1.33s4.54,0.44,6.57,1.33c2.04,0.89,3.81,2.08,5.31,3.58s2.69,3.27,3.58,5.31
		c0.88,2.04,1.33,4.23,1.33,6.57v15.49h-7.16v-1.73c-2.84,2.01-6.05,3.02-9.62,3.02c-2.55,0-4.86-0.43-6.94-1.3
		c-2.08-0.86-3.85-2.06-5.31-3.58s-2.59-3.3-3.39-5.34C78.74,34.09,78.34,31.9,78.34,29.56 M85.5,29.56c0,1.32,0.26,2.56,0.77,3.73
		c0.51,1.17,1.21,2.19,2.07,3.05c0.87,0.86,1.89,1.55,3.06,2.07s2.42,0.77,3.74,0.77s2.57-0.24,3.74-0.71
		c1.18-0.47,2.21-1.14,3.09-2.01c0.89-0.86,1.58-1.88,2.07-3.05c0.5-1.17,0.74-2.46,0.74-3.86c0-1.32-0.26-2.56-0.77-3.73
		c-0.52-1.17-1.21-2.19-2.07-3.05c-0.87-0.86-1.89-1.55-3.06-2.07c-1.18-0.51-2.42-0.77-3.74-0.77s-2.57,0.26-3.74,0.77
		c-1.18,0.52-2.2,1.2-3.06,2.07c-0.87,0.86-1.56,1.88-2.07,3.05C85.76,27,85.5,28.24,85.5,29.56"/>
	<path d="M116.47,14.2h7.16v3.09c1.48-1.03,3.17-1.82,5.06-2.38s3.97-0.83,6.23-0.83v7.16c-1.56,0-3.02,0.26-4.38,0.77
		s-2.55,1.21-3.58,2.1c-1.03,0.88-1.84,1.91-2.44,3.08c-0.6,1.17-0.9,2.42-0.9,3.73v14.13h-7.16V14.2H116.47z"/>
	<polygon points="138.13,21.35 138.13,14.2 140.97,14.2 140.97,3.15 148.12,3.15 148.12,14.2 155.34,14.2 155.34,21.35 
		148.12,21.35 148.12,45.05 140.97,45.05 140.97,21.35 	"/>
	<path class="st0" d="M4.67,37.42V21.35H1.83V14.2h2.84V3.15h7.16V14.2h7.22v7.16h-7.22v13.23c0,0-0.26,3.39,3.32,3.39l0.03,7.13
		h-4.52C10.67,45.11,4.67,45.07,4.67,37.42"/>
	<path d="M27.64,57.31c-2.64,0-3.97-1.35-3.97-4.01v-0.51l0.14-0.14h0.93l0.14,0.14v0.51c0,1.89,0.88,2.81,2.69,2.81h3.86
		c0.82,0,1.18-0.24,1.18-1.69v-1.61l0.14-0.14h0.93l0.14,0.14v2.03c0,2.05-1.13,2.48-2.08,2.48h-4.1V57.31z M29.18,52.93l-0.14-0.14
		v-1.13l0.14-0.14h0.95l0.14,0.14v1.13l-0.14,0.14H29.18z M27.44,52.93l-0.14-0.14v-1.13l0.14-0.14h0.94l0.14,0.14v1.13l-0.14,0.14
		H27.44z"/>
	<path d="M34.99,59.36v-0.89l0.14-0.14c1.2,0,1.73-0.65,1.73-2.12v-3.42L37,52.65h0.93l0.14,0.14v3.24c0,2.28-0.9,3.34-2.93,3.45
		L34.99,59.36z"/>
	<path d="M41.59,57.31c-0.51,0-0.95-0.18-1.31-0.54c-0.41-0.4-0.61-0.96-0.61-1.71v-4.83l0.14-0.14h0.96l0.14,0.14v4.27
		c0,0.57,0.08,1,0.24,1.25c0.12,0.19,0.34,0.3,0.66,0.35c0.08,0.01,0.2,0.01,0.83,0.01l0.14,0.14v0.93l-0.14,0.14L41.59,57.31
		L41.59,57.31z"/>
	<path d="M42.42,57.31l-0.14-0.14v-0.92l0.14-0.14h0.85c0.52,0,0.85-0.16,1.01-0.47c0.12-0.23,0.18-0.65,0.18-1.23V52.8l0.14-0.14
		h0.93l0.14,0.14v2.03c0,0.51-0.06,0.93-0.18,1.28h78.62l0.14,0.14v0.93l-0.14,0.14L42.42,57.31L42.42,57.31z M44.58,51.98
		l-0.14-0.14v-1.13l0.14-0.14h0.95l0.14,0.14v1.13l-0.14,0.14H44.58z M42.83,51.98l-0.14-0.14v-1.13l0.14-0.14h0.95l0.14,0.14v1.13
		l-0.14,0.14H42.83z"/>
	<path d="M46.71,57.31l-0.14-0.14v-0.93l0.14-0.14h78.33c0.77,0,1.19-0.52,1.28-1.58V52.8l0.14-0.14h0.93l0.14,0.14v2.03
		c0,0.49-0.06,0.92-0.18,1.28h1.57c0.69,0,1-0.24,1-1.69v-1.61l0.14-0.14h0.93l0.14,0.14v2.03c0,0.51-0.06,0.94-0.19,1.28h1.4
		c0.83,0,1.2-0.24,1.2-1.69v-1.61l0.14-0.14h0.95l0.14,0.14v2.03c0,1.64-0.71,2.48-2.11,2.48H46.71V57.31z"/>
	<path class="st0" d="M142.81,57.31c-2.34,0-3.52-1.35-3.52-4.01v-0.51l0.14-0.14h0.82l0.14,0.14v0.51c0,1.89,0.77,2.81,2.36,2.81
		h3.41c0.71,0,1.03-0.24,1.03-1.69v-1.61l0.14-0.14h0.82l0.14,0.14v2.03c0,2.05-1.01,2.48-1.85,2.48h-3.63V57.31z M144.17,52.93
		l-0.14-0.14v-1.13l0.14-0.14H145l0.14,0.14v1.13L145,52.93H144.17z M142.64,52.93l-0.14-0.14v-1.13l0.14-0.14h0.83l0.14,0.14v1.13
		l-0.14,0.14H142.64z"/>
</g>
</svg>
