<?xml version="1.0" encoding="utf-8"?>
<!-- Generator: Adobe Illustrator 25.4.0, SVG Export Plug-In . SVG Version: 6.00 Build 0)  -->
<svg version="1.1" id="Layer_1" xmlns="http://www.w3.org/2000/svg" xmlns:xlink="http://www.w3.org/1999/xlink" x="0px" y="0px"
	 viewBox="0 0 918.62 223.26" style="enable-background:new 0 0 918.62 223.26;" xml:space="preserve">
<style type="text/css">
	.st0{fill:#ED1C24;}
	.st1{fill:#E20613;}
	.st2{fill:#FFFFFF;}
	.st3{fill:#7C7C7C;}
</style>
<g>
	<path d="M678.7-626.6l-14.54,7.86c-2.72-4.31-5.31-7.11-7.77-8.42c-2.57-1.5-5.87-2.25-9.93-2.25c-4.98,0-9.11,1.29-12.39,3.86
		c-3.28,2.53-4.92,5.71-4.92,9.55c0,5.29,4.31,9.55,12.93,12.78l11.85,4.42c9.64,3.56,16.7,7.9,21.16,13.02
		c4.46,5.12,6.69,11.41,6.69,18.85c0,9.97-3.64,18.21-10.93,24.71c-7.34,6.55-16.44,9.83-27.32,9.83c-10.31,0-18.83-2.78-25.55-8.35
		c-6.62-5.57-10.75-13.41-12.39-23.52l18.16-3.65c0.82,6.37,2.26,10.77,4.31,13.2c3.69,4.68,9.08,7.02,16.16,7.02
		c5.59,0,10.23-1.71,13.93-5.12c3.69-3.42,5.54-7.75,5.54-12.99c0-2.11-0.32-4.04-0.96-5.79c-0.64-1.76-1.64-3.37-3-4.84
		c-1.36-1.47-3.12-2.85-5.27-4.14c-2.15-1.29-4.72-2.52-7.69-3.69l-11.47-4.35c-16.26-6.27-24.39-15.44-24.39-27.52
		c0-8.14,3.41-14.95,10.23-20.43c6.82-5.52,15.31-8.28,25.47-8.28C660.31-644.86,671.01-638.77,678.7-626.6z"/>
	<path d="M720.64-587.99v53.63h-17.31v-53.63h-7.39v-14.74h7.39v-25.06h17.31v25.06h13.47v14.74H720.64z"/>
	<path d="M802.51-602.73h17.39v68.38h-17.39v-7.16c-7.13,6.08-14.8,9.13-23.01,9.13c-10.36,0-18.93-3.42-25.7-10.25
		c-6.72-6.97-10.08-15.68-10.08-26.12c0-10.25,3.36-18.79,10.08-25.62c6.72-6.83,15.13-10.25,25.24-10.25
		c8.72,0,16.54,3.28,23.47,9.83L802.51-602.73L802.51-602.73z M761.42-568.76c0,6.55,1.92,11.89,5.77,16.01
		c3.95,4.17,8.93,6.25,14.93,6.25c6.41,0,11.59-2.01,15.54-6.04c3.95-4.16,5.92-9.45,5.92-15.87c0-6.41-1.98-11.7-5.92-15.87
		c-3.95-4.07-9.08-6.11-15.39-6.11c-5.95,0-10.93,2.06-14.93,6.18C763.39-580.03,761.42-574.89,761.42-568.76z"/>
	<path d="M841.75-602.73h17.31v6.11c3.18-3.04,6-5.12,8.46-6.25c2.51-1.17,5.49-1.75,8.93-1.75c4.57,0,9.34,1.36,14.31,4.07
		l-7.93,14.46c-3.28-2.15-6.49-3.23-9.62-3.23c-9.44,0-14.16,6.51-14.16,19.52v35.45h-17.31L841.75-602.73L841.75-602.73z"/>
	<path d="M924.24-587.99v53.63h-17.31v-53.63h-7.39v-14.74h7.39v-25.06h17.31v25.06h13.47v14.74H924.24z"/>
</g>
<path class="st0" d="M557.92-595.38c-2.78-0.24-4.88-0.42-7.47-0.64c0-5.77,0-11.48,0-17.43c2.37-0.17,4.6-0.34,7.45-0.54
	c0-8.96,0-17.74,0-26.84c6.71,0,12.79,0,19.67,0c0,8.92,0,17.81,0,27.15c7.02,0,13.26,0,19.78,0c0,6.1,0,11.72,0,17.88
	c-6.51,0-12.74,0-19.33,0c-0.18,1.87-0.42,3.24-0.42,4.62c-0.01,9.01-0.01,18.02,0.06,27.03c0.05,6.81,2.03,9.3,9,11.22
	c0,5.14,0,10.38,0,16.19c-7.06,0.36-14.4,1.83-21.05-2.05c-6.05-3.54-7.53-9.78-7.63-16.28c-0.15-9.58-0.05-19.17-0.06-28.75
	C557.92-587.53,557.92-591.22,557.92-595.38z"/>
<path d="M965.06-584.6c-6.24,0.05-11.8-5.08-11.78-10.97c0.02-5.17,4.23-10.73,11.93-10.66c7.41,0.07,11.4,4.92,11.81,10.4
	C977.5-589.39,970.27-584.45,965.06-584.6z"/>
<g>
	<g>
		<g>
			<path class="st1" d="M409.05-631.3c-14.97,0-28.25,7.1-36.78,18.08c-8.51-10.97-21.79-18.08-36.78-18.08
				c-14.97,0-28.26,7.1-36.79,18.08c-8.51-10.97-21.79-18.08-36.78-18.08c-14.97,0-28.26,7.09-36.78,18.08
				c-8.51-10.99-21.81-18.08-36.76-18.08c-14.98,0-28.28,7.09-36.79,18.08c-8.52-10.99-21.82-18.08-36.78-18.08
				c-14.98,0-28.27,7.09-36.79,18.08c-8.52-10.99-21.81-18.08-36.78-18.08c-14.98,0-28.27,7.09-36.78,18.08
				c-8.5-10.98-21.81-18.08-36.76-18.08c-25.73,0-46.58,20.84-46.58,46.58c0,25.73,20.85,46.58,46.58,46.58
				c14.96,0,28.26-7.09,36.79-18.07c8.51,10.97,21.79,18.07,36.78,18.07c14.97,0,28.25-7.09,36.78-18.07
				c8.52,10.97,21.81,18.07,36.79,18.07c14.96,0,28.25-7.09,36.78-18.07c8.51,10.97,21.81,18.07,36.79,18.07
				c14.96,0,28.25-7.09,36.76-18.07c8.51,10.97,21.8,18.07,36.78,18.07s28.27-7.09,36.78-18.07c8.52,10.97,21.82,18.07,36.79,18.07
				c14.98,0,28.27-7.09,36.78-18.07c8.52,10.97,21.81,18.07,36.78,18.07c25.74,0,46.59-20.85,46.59-46.58
				C455.64-610.46,434.79-631.3,409.05-631.3"/>
			<path class="st2" d="M335.5-560.46c-13.37,0-24.24-10.88-24.24-24.26s10.87-24.25,24.24-24.25s24.24,10.88,24.24,24.25
				S348.87-560.46,335.5-560.46 M335.5-598.36c-7.52,0-13.66,6.12-13.66,13.64c0,7.53,6.14,13.66,13.66,13.66
				c7.53,0,13.64-6.13,13.64-13.66C349.14-592.24,343.03-598.36,335.5-598.36"/>
			<path class="st2" d="M409.05-560.46c-13.37,0-24.26-10.88-24.26-24.26s10.89-24.25,24.26-24.25c13.39,0,24.26,10.88,24.26,24.25
				S422.43-560.46,409.05-560.46 M409.05-598.36c-7.52,0-13.63,6.12-13.63,13.64c0,7.53,6.11,13.66,13.63,13.66
				s13.64-6.13,13.64-13.66C422.69-592.24,416.57-598.36,409.05-598.36"/>
			<path class="st2" d="M41.26-560.46c-13.37,0-24.26-10.88-24.26-24.26s10.88-24.25,24.26-24.25c13.36,0,24.23,10.88,24.23,24.25
				S54.62-560.46,41.26-560.46 M41.26-598.36c-7.52,0-13.64,6.12-13.64,13.64c0,7.53,6.12,13.66,13.64,13.66s13.63-6.13,13.63-13.66
				C54.89-592.24,48.78-598.36,41.26-598.36"/>
			<path class="st2" d="M-32.3-560.46c-13.37,0-24.26-10.88-24.26-24.26s10.88-24.25,24.26-24.25c13.37,0,24.24,10.88,24.24,24.25
				S-18.93-560.46-32.3-560.46 M-32.3-598.36c-7.52,0-13.64,6.12-13.64,13.64c0,7.53,6.12,13.66,13.64,13.66
				c7.53,0,13.64-6.13,13.64-13.66C-18.66-592.24-24.77-598.36-32.3-598.36"/>
			<path class="st2" d="M188.87-560.52c-0.79,0-1.51-0.03-2.21-0.08l-0.58-0.04l-0.76-0.06c-12.28-1.37-21.55-11.72-21.55-24.09
				c0-13.39,10.88-24.25,24.26-24.25c13.37,0,24.25,10.87,24.25,24.25c0,1.62-0.13,3-0.45,4.59l-36.59-0.01l0.74,1.77
				c1.95,3.7,5.4,6.25,9.46,7.04c1.17,0.22,2.4,0.32,3.62,0.32h0.62c3.53-0.1,6.86-1.32,9.16-3.35l0.3-0.28l9.85,5.29l-0.44,0.51
				c-4.44,5.34-10.78,8.16-18.84,8.37C189.42-560.53,189.15-560.52,188.87-560.52 M188.03-598.43c-5.58,0-10.53,3.34-12.62,8.52
				l-0.06,0.15l25.35,0.03l-0.05-0.15C198.59-595.06,193.64-598.43,188.03-598.43"/>
			<path class="st2" d="M92.35-561.7l0.03-23.02l0.04-1.34c0.7-12.84,11.35-22.9,24.23-22.9c9.22,0,17.5,5.13,21.65,13.4l-9.36,4.98
				c-2.26-4.72-7.07-7.77-12.29-7.77c-7.53,0-13.64,6.11-13.64,13.64L103-561.69L92.35-561.7L92.35-561.7z"/>
			<path class="st2" d="M275.59-629.25l-0.03,24.48l-0.98-0.61c-3.81-2.35-8.16-3.58-12.65-3.58c-13.37,0-24.25,10.88-24.25,24.24
				c0,13.37,10.88,24.26,24.25,24.26s24.24-10.88,24.24-24.26l0.05-39.69C282.92-626.44,279.37-628.09,275.59-629.25 M261.93-571.06
				c-7.5,0-13.63-6.13-13.63-13.66c0-7.53,6.13-13.64,13.63-13.64c7.54,0,13.66,6.11,13.66,13.64
				C275.59-577.19,269.47-571.06,261.93-571.06"/>
		</g>
	</g>
</g>
<rect x="498.35" y="-623.93" class="st3" width="5.11" height="78.66"/>
<g>
	<path d="M167.28,204.14h-13.6c-3.02,0-6.38-1.63-6.88-6.19l-6.38-54.77l-22.67,54.77c-1.85,4.56-3.69,6.19-7.05,6.19h-9.91
		c-3.53,0-5.21-1.63-7.05-6.03l-23-55.09l-6.04,54.93c-0.5,4.56-3.86,6.19-6.88,6.19h-13.6c-3.02,0-6.38-1.63-5.88-6.19
		c3.53-31.13,9.4-78.08,12.26-96.98c1.18-8.31,6.88-10.92,13.94-10.92c5.2,0,10.74,2.93,13.94,10.59l27.2,64.87l27.2-64.87
		c3.19-7.66,7.89-10.59,14.77-10.59c5.88,0,11.75,2.77,12.76,9.78c4.7,31.13,8.9,68.62,12.76,98.12
		C173.66,202.51,170.3,204.14,167.28,204.14z"/>
	<path d="M278.42,128.18v69.6c0,4.24-2.18,6.36-6.38,6.36h-11.08c-4.37,0-6.55-2.12-6.55-6.36v-1.14
		c-6.88,6.36-14.94,9.13-23.5,9.13c-24.18,0-44.83-19.88-44.83-44.82c0-24.61,20.65-44.5,44.83-44.5c8.9,0,17.12,2.45,24.01,8.15
		c1.51-4.73,6.04-8.15,11.42-8.15C273.04,116.45,278.42,121.66,278.42,128.18z M254.41,160.95c0-12.06-9.91-21.68-22.5-21.68
		c-12.26,0-22.5,9.62-22.5,21.68c0,12.39,10.24,22,22.5,22C244.5,182.95,254.41,173.33,254.41,160.95z"/>
	<path d="M293.53,161.27c0-24.45,18.97-44.66,46-44.66c12.59,0,22.67,4.4,26.53,6.52c4.7,2.61,7.22,5.87,7.22,10.27
		c0,6.19-5.04,11.08-11.08,11.08c-2.18,0-4.37-0.81-6.55-1.96c-4.03-2.12-8.9-3.59-14.27-3.59c-12.09,0-23,8.48-23,22.17
		s10.91,22.49,22.83,22.49c5.88,0,10.91-1.3,14.94-3.42c2.18-1.14,4.37-1.96,6.55-1.96c6.04,0,11.08,4.89,11.08,11.08
		c0,4.4-2.52,7.66-7.22,10.27c-3.86,2.12-13.94,6.19-27.03,6.19C312.83,205.77,293.53,185.72,293.53,161.27z"/>
	<path d="M385.36,199.58V92.65c0-6.52,5.37-11.74,11.92-11.74c6.72,0,12.09,5.22,12.09,11.74l0.17,31.29
		c6.04-4.73,14.27-7.5,23.17-7.5c20.82,0,34.08,14.83,34.08,38.96v44.17c0,2.93-1.68,4.56-4.7,4.56h-14.61
		c-3.02,0-4.7-1.63-4.7-4.56v-43.85c0-9.62-6.88-16.95-16.62-16.95c-9.57,0-16.79,7.33-16.79,16.95v43.85c0,2.93-1.68,4.56-4.7,4.56
		h-14.61C387.04,204.14,385.36,202.51,385.36,199.58z"/>
	<path d="M530.25,139.27c-11.58,0-22.16,9.13-22.16,22.33v37.98c0,2.93-1.68,4.56-4.7,4.56h-14.61c-3.02,0-4.7-1.63-4.7-4.56v-37.82
		c0-16.62,9.23-31.13,22.5-38.96c8.9-5.38,16.45-6.36,26.19-6.36c4.03,0,7.22,0,10.07,1.14c4.53,1.79,7.39,5.87,7.39,10.76
		c0,5.87-4.7,11.25-11.58,11.25C535.79,139.59,533.44,139.27,530.25,139.27z"/>
	<g>
		<path d="M547.93,161.4c0-24.68,20.23-44.62,45.27-44.62c25.04,0,45.27,19.94,45.27,44.62c0,25.01-20.23,44.95-45.27,44.95
			C568.16,206.35,547.93,186.41,547.93,161.4z M615.42,161.4c0-12.1-9.78-21.74-22.22-21.74c-12.11,0-22.22,9.64-22.22,21.74
			c0,12.42,10.12,22.07,22.22,22.07C605.64,183.46,615.42,173.82,615.42,161.4z"/>
		<path d="M733,128.54v71.59c0,2.94-1.66,4.58-4.64,4.58h-14.43c-2.99,0-4.64-1.63-4.64-4.58v-5.39
			c-5.31,6.05-13.43,11.61-24.88,11.61c-20.4,0-31.84-15.53-31.84-34.16v-43.64c0-6.54,5.31-11.77,11.77-11.77
			c6.63,0,11.94,5.23,11.94,11.77v36.78c0,10.79,6.8,17,16.42,17c9.45,0,16.58-6.21,16.58-17v-36.78c0-6.54,5.31-11.77,11.77-11.77
			C727.69,116.77,733,122,733,128.54z"/>
	</g>
	<path d="M832.62,168.44c0,24.45-19.81,37.33-41.97,37.33c-13.6,0-26.02-4.56-34.25-14.34c-1.85-2.28-3.02-5.05-3.02-7.99
		c0-7.17,5.71-12.88,12.93-12.88c10.41,0,11.08,10.27,24.34,10.27c10.07,0,15.95-4.89,15.95-12.88c-0.34-6.68-6.21-12.06-13.1-11.9
		c-8.39,0.16-10.91,0-14.1-2.45c-2.85-2.28-4.2-5.38-4.2-8.64c0-2.45,0.67-4.73,2.35-6.68l18.3-22.49h-31.23
		c-6.88,0-12.42-5.38-12.42-11.9c0-6.85,5.54-12.22,12.42-12.22h54.73c6.72,0,12.26,5.38,12.26,12.22c0,3.1-1.51,6.03-3.19,8.15
		l-20.15,25.26C822.37,141.71,832.62,152.96,832.62,168.44z"/>
	<path d="M851.92,94.12c0-7.33,6.21-13.37,13.93-13.37c7.56,0,13.77,6.03,13.77,13.37c0,7.5-6.21,13.53-13.77,13.53
		C858.13,107.65,851.92,101.62,851.92,94.12z M877.94,197.78c0,4.24-2.18,6.36-6.38,6.36h-11.08c-4.37,0-6.55-2.12-6.55-6.36v-69.6
		c0-6.52,5.37-11.74,11.92-11.74c6.72,0,12.09,5.22,12.09,11.74V197.78z"/>
</g>
</svg>
